<svg xmlns="http://www.w3.org/2000/svg" viewBox="0 0 388.08 717.28"><defs><style>.cls-1{fill:none;stroke:#e384c5;stroke-miterlimit:10;stroke-width:3px;}.cls-2{fill:#e384c5;}</style></defs><g id="Layer_2" data-name="Layer 2"><g id="Layer_1-2" data-name="Layer 1"><path class="cls-1" d="M3.6,13.62c151.82,9.78,286.69,98.45,350.84,232.19,49.06,102.3,52.92,306.35-67.05,470.59"/><path class="cls-2" d="M23,29.51a1.51,1.51,0,0,0-.31-2.1L4.28,13.71,24.48,2.82a1.51,1.51,0,0,0,.62-2,1.51,1.51,0,0,0-2-.61L.79,12.19A1.51,1.51,0,0,0,0,13.4a1.54,1.54,0,0,0,.6,1.31L20.91,29.82a1.56,1.56,0,0,0,.78.29A1.49,1.49,0,0,0,23,29.51Z"/></g></g></svg>