<svg xmlns="http://www.w3.org/2000/svg" viewBox="0 0 980.9 680.12"><defs><style>.cls-1{fill:none;stroke:#b75648;stroke-miterlimit:10;stroke-width:3px;}.cls-2{fill:#b75648;}</style></defs><g id="Layer_2" data-name="Layer 2"><g id="Layer_1-2" data-name="Layer 1"><path class="cls-1" d="M980.48,51.08C248.28-162.1,16.6,362.06,14.84,676.52"/><path class="cls-2" d="M.71,655.85a1.49,1.49,0,0,1,2.06.49l12.11,19.49,12.55-19.21a1.49,1.49,0,0,1,2.08-.44,1.51,1.51,0,0,1,.43,2.08L16.11,679.44a1.5,1.5,0,0,1-1.28.68,1.49,1.49,0,0,1-1.26-.71L.23,657.92a1.54,1.54,0,0,1-.23-.81A1.51,1.51,0,0,1,.71,655.85Z"/></g></g></svg>